<svg width="156" height="195" viewBox="0 0 156 195" fill="none" xmlns="http://www.w3.org/2000/svg">
<path d="M148.5 4.5H151.5V7.5H156V187.5H151.5V190.5H148.5V195H7.5V190.5H4.5V187.5H0V7.5H4.5V4.5H7.5V0H148.5V4.5Z" fill="#292D31"/>
<path d="M145.5 9H147V10.5H151.5V184.5H147V186H145.5V190.5H10.5V186H9V184.5H4.5V10.5H9V9H10.5V4.5H145.5V9ZM15 13.5H13.5V15H12V180H13.5V181.5H15V183H141V181.5H142.5V180H144V15H142.5V13.5H141V12H15V13.5Z" fill="#C73C46"/>
<rect x="16.5" y="16.5" width="123" height="162" fill="#E5DEC0"/>
<path d="M102 123.5H95V130.5H60V123.5H53V116.5H46V81.5H53V74.5H60V67.5H95V74.5H102V81.5H109V116.5H102V123.5ZM67 109.5V116.5H88V109.5H95V88.5H88V81.5H67V88.5H60V109.5H67Z" fill="#612D30"/>
<path d="M24.9961 40V32H26.9961V28H28.9961V24H30.9961V22H36.9961V36H38.9961V40H36.9961V44H32.9961V40H24.9961ZM28.9961 36H32.9961V28H30.9961V32H28.9961V36Z" fill="#303C36"/>
<path d="M116.496 169V161H118.496V157H120.496V153H122.496V151H128.496V165H130.496V169H128.496V173H124.496V169H116.496ZM120.496 165H124.496V157H122.496V161H120.496V165Z" fill="#303C36"/>
</svg>
