<svg width="156" height="195" viewBox="0 0 156 195" fill="none" xmlns="http://www.w3.org/2000/svg">
<path d="M148.5 4.5H151.5V7.5H156V187.5H151.5V190.5H148.5V195H7.5V190.5H4.5V187.5H0V7.5H4.5V4.5H7.5V0H148.5V4.5Z" fill="#292D31"/>
<path d="M145.5 9H147V10.5H151.5V184.5H147V186H145.5V190.5H10.5V186H9V184.5H4.5V10.5H9V9H10.5V4.5H145.5V9ZM15 13.5H13.5V15H12V180H13.5V181.5H15V183H141V181.5H142.5V180H144V15H142.5V13.5H141V12H15V13.5Z" fill="#A164AC"/>
<rect x="16.5" y="16.5" width="123" height="162" fill="#E5DEC0"/>
<path d="M46 130.5V67.5H60V116.5H109V130.5H46Z" fill="#522E52"/>
<path d="M24.9961 42V38H28.9961V40H34.9961V34H28.9961V30H34.9961V26H28.9961V28H24.9961V24H26.9961V22H36.9961V24H38.9961V32H36.9961V34H38.9961V42H36.9961V44H26.9961V42H24.9961Z" fill="#303C36"/>
<path d="M116.496 171V167H120.496V169H126.496V163H120.496V159H126.496V155H120.496V157H116.496V153H118.496V151H128.496V153H130.496V161H128.496V163H130.496V171H128.496V173H118.496V171H116.496Z" fill="#303C36"/>
</svg>
