<svg width="162" height="201" viewBox="0 0 162 201" fill="none" xmlns="http://www.w3.org/2000/svg">
<path d="M148.5 10.5H151.5V13.5H156V193.5H151.5V196.5H148.5V201H7.5V196.5H4.5V193.5H0V13.5H4.5V10.5H7.5V6H148.5V10.5Z" fill="#292D31"/>
<path d="M145.5 15H147V16.5H151.5V190.5H147V192H145.5V196.5H10.5V192H9V190.5H4.5V16.5H9V15H10.5V10.5H145.5V15ZM18.5 22.5H17V24H12V183H17V184.5H18.5V189H138V184.5H139.5V183H144V24H139.5V22.5H138V18H18.5V22.5Z" fill="#D4BB85"/>
<path d="M16.5 22.5H139.5V184.5H16.5V22.5Z" fill="#6C4638"/>
<g filter="url(#filter0_d_4_12882)">
<path fill-rule="evenodd" clip-rule="evenodd" d="M94.667 59.425H104.19V63.8492H108.953V68.2743H113.714V72.6993H118.476V80.6635H123.238V85.0886H128V89.5136H123.238L118.476 89.5128V85.0886H113.714V77.1235H108.953V72.6993H104.19V77.1235H99.4286V72.6993H104.19V68.2743H99.4286V72.6993H94.667V80.6635H104.191L104.19 77.1235H108.953V85.0886H85.1429V89.5128L80.3812 89.5136V59.425H75.6196V89.5128L70.8571 89.5136V85.0886H47.0473V77.1235H51.8089V80.6635H61.333V72.6993H56.5714V68.2743H66.0955L66.0947 80.6635H70.8571V59.425H66.0955V63.8492H56.5714V68.2743H51.8098V72.6993H47.0473V77.1235H42.2857V85.0886H37.5241V89.5136H32.7616V120.486H37.5241V124.911H42.2857V132.876H47.0473V137.301H51.8098V141.726H56.5714V146.151H66.0955V150.575H70.8571V129.336H66.0947L66.0955 141.726H56.5714V137.301H61.333V129.336H51.8089V132.876H47.0473V124.911H70.8571V120.486L75.6196 120.487V150.575H80.3812V120.486L85.1429 120.487V124.911H108.953V132.876H104.191V129.336H94.667V137.301H99.4286V132.876H104.191L104.19 137.301H108.953V132.876H113.714V124.911H118.476V120.487L128 120.486V124.911H123.238V129.336H118.476V137.301H113.714V141.726H108.953V146.151H104.19V150.575H94.667L94.6661 155H61.333V150.575H51.8098V146.151H47.0473V141.726H42.2857V137.301H37.5241V129.336H32.7625V124.911H28V85.0886H32.7625V80.6635H37.5241V72.6993H42.2857V68.2743H47.0473V63.8492H51.8098V59.425H61.333V55H94.6661L94.667 59.425ZM85.1429 150.575H89.9045V146.151H99.4286V141.726H89.9045L89.9053 129.336H85.1429V150.575ZM99.4286 141.726H104.19V137.301H99.4286V141.726ZM85.1429 80.6635H89.9053L89.9045 68.2743H99.4286V63.8492H89.9045V59.425H85.1429V80.6635Z" fill="url(#paint0_linear_4_12882)"/>
<path d="M56.5714 137.301H51.8098L51.8089 132.876H56.5714V137.301Z" fill="url(#paint1_linear_4_12882)"/>
<path d="M56.5714 77.1235H51.8089L51.8098 72.6993H56.5714V77.1235Z" fill="url(#paint2_linear_4_12882)"/>
<path fill-rule="evenodd" clip-rule="evenodd" d="M128 120.486H123.238V111.637H89.9045V116.062H118.476V120.487L37.5241 120.486V116.062H66.0955V111.637H32.7625V107.212H61.333V102.788H32.7625V98.3629H66.0955V93.9378H37.5241V89.5136L118.476 89.5128V93.9378H89.9045V98.3629H123.238V89.5136H128V120.486ZM94.667 102.788V107.212H123.238V102.788H94.667ZM85.1429 107.212H80.3812V111.637H75.6188V107.212H70.8571V116.062H85.1429V107.212H89.9045V102.788H85.1429V107.212ZM70.8571 102.788H66.0947V107.212H70.8571V102.788H75.6188V98.3629H80.3812V102.788H85.1429V93.9378H70.8571V102.788Z" fill="url(#paint3_linear_4_12882)"/>
</g>
<rect x="16" y="22" width="5" height="5" fill="#292D31"/>
<rect x="16" y="180" width="5" height="5" fill="#292D31"/>
<rect x="135" y="22" width="5" height="5" fill="#292D31"/>
<rect x="135" y="180" width="5" height="5" fill="#292D31"/>
<path d="M154.5 4.5H157.5V7.5H162V187.5H157.5V190.5H154.5V195H13.5V190.5H10.5V187.5H6V7.5H10.5V4.5H13.5V0H154.5V4.5Z" fill="#292D31"/>
<path d="M151.5 9H153V10.5H157.5V184.5H153V186H151.5V190.5H16.5V186H15V184.5H10.5V10.5H15V9H16.5V4.5H151.5V9ZM24.5 16.5H23V18H18V177H23V178.5H24.5V183H144V178.5H145.5V177H150V18H145.5V16.5H144V12H24.5V16.5Z" fill="#D4BB85"/>
<path d="M22.5 16.5H145.5V178.5H22.5V16.5Z" fill="#6C4638"/>
<g filter="url(#filter1_d_4_12882)">
<path fill-rule="evenodd" clip-rule="evenodd" d="M100.667 53.425H110.19V57.8492H114.953V62.2743H119.714V66.6993H124.476V74.6635H129.238V79.0886H134V83.5136H129.238L124.476 83.5128V79.0886H119.714V71.1235H114.953V66.6993H110.19V71.1235H105.429V66.6993H110.19V62.2743H105.429V66.6993H100.667V74.6635H110.191L110.19 71.1235H114.953V79.0886H91.1429V83.5128L86.3812 83.5136V53.425H81.6196V83.5128L76.8571 83.5136V79.0886H53.0473V71.1235H57.8089V74.6635H67.333V66.6993H62.5714V62.2743H72.0955L72.0947 74.6635H76.8571V53.425H72.0955V57.8492H62.5714V62.2743H57.8098V66.6993H53.0473V71.1235H48.2857V79.0886H43.5241V83.5136H38.7616V114.486H43.5241V118.911H48.2857V126.876H53.0473V131.301H57.8098V135.726H62.5714V140.151H72.0955V144.575H76.8571V123.336H72.0947L72.0955 135.726H62.5714V131.301H67.333V123.336H57.8089V126.876H53.0473V118.911H76.8571V114.486L81.6196 114.487V144.575H86.3812V114.486L91.1429 114.487V118.911H114.953V126.876H110.191V123.336H100.667V131.301H105.429V126.876H110.191L110.19 131.301H114.953V126.876H119.714V118.911H124.476V114.487L134 114.486V118.911H129.238V123.336H124.476V131.301H119.714V135.726H114.953V140.151H110.19V144.575H100.667L100.666 149H67.333V144.575H57.8098V140.151H53.0473V135.726H48.2857V131.301H43.5241V123.336H38.7625V118.911H34V79.0886H38.7625V74.6635H43.5241V66.6993H48.2857V62.2743H53.0473V57.8492H57.8098V53.425H67.333V49H100.666L100.667 53.425ZM91.1429 144.575H95.9045V140.151H105.429V135.726H95.9045L95.9053 123.336H91.1429V144.575ZM105.429 135.726H110.19V131.301H105.429V135.726ZM91.1429 74.6635H95.9053L95.9045 62.2743H105.429V57.8492H95.9045V53.425H91.1429V74.6635Z" fill="url(#paint4_linear_4_12882)"/>
<path d="M62.5714 131.301H57.8098L57.8089 126.876H62.5714V131.301Z" fill="url(#paint5_linear_4_12882)"/>
<path d="M62.5714 71.1235H57.8089L57.8098 66.6993H62.5714V71.1235Z" fill="url(#paint6_linear_4_12882)"/>
<path fill-rule="evenodd" clip-rule="evenodd" d="M134 114.486H129.238V105.637H95.9045V110.062H124.476V114.487L43.5241 114.486V110.062H72.0955V105.637H38.7625V101.212H67.333V96.7879H38.7625V92.3629H72.0955V87.9378H43.5241V83.5136L124.476 83.5128V87.9378H95.9045V92.3629H129.238V83.5136H134V114.486ZM100.667 96.7879V101.212H129.238V96.7879H100.667ZM91.1429 101.212H86.3812V105.637H81.6188V101.212H76.8571V110.062H91.1429V101.212H95.9045V96.7879H91.1429V101.212ZM76.8571 96.7879H72.0947V101.212H76.8571V96.7879H81.6188V92.3629H86.3812V96.7879H91.1429V87.9378H76.8571V96.7879Z" fill="url(#paint7_linear_4_12882)"/>
</g>
<rect x="22" y="16" width="5" height="5" fill="#292D31"/>
<rect x="22" y="174" width="5" height="5" fill="#292D31"/>
<rect x="141" y="16" width="5" height="5" fill="#292D31"/>
<rect x="141" y="174" width="5" height="5" fill="#292D31"/>
<defs>
<filter id="filter0_d_4_12882" x="28" y="55" width="100" height="104" filterUnits="userSpaceOnUse" color-interpolation-filters="sRGB">
<feFlood flood-opacity="0" result="BackgroundImageFix"/>
<feColorMatrix in="SourceAlpha" type="matrix" values="0 0 0 0 0 0 0 0 0 0 0 0 0 0 0 0 0 0 127 0" result="hardAlpha"/>
<feOffset dy="4"/>
<feComposite in2="hardAlpha" operator="out"/>
<feColorMatrix type="matrix" values="0 0 0 0 0 0 0 0 0 0 0 0 0 0 0 0 0 0 0.4 0"/>
<feBlend mode="normal" in2="BackgroundImageFix" result="effect1_dropShadow_4_12882"/>
<feBlend mode="normal" in="SourceGraphic" in2="effect1_dropShadow_4_12882" result="shape"/>
</filter>
<filter id="filter1_d_4_12882" x="34" y="49" width="100" height="104" filterUnits="userSpaceOnUse" color-interpolation-filters="sRGB">
<feFlood flood-opacity="0" result="BackgroundImageFix"/>
<feColorMatrix in="SourceAlpha" type="matrix" values="0 0 0 0 0 0 0 0 0 0 0 0 0 0 0 0 0 0 127 0" result="hardAlpha"/>
<feOffset dy="4"/>
<feComposite in2="hardAlpha" operator="out"/>
<feColorMatrix type="matrix" values="0 0 0 0 0 0 0 0 0 0 0 0 0 0 0 0 0 0 0.4 0"/>
<feBlend mode="normal" in2="BackgroundImageFix" result="effect1_dropShadow_4_12882"/>
<feBlend mode="normal" in="SourceGraphic" in2="effect1_dropShadow_4_12882" result="shape"/>
</filter>
<linearGradient id="paint0_linear_4_12882" x1="78" y1="55" x2="78" y2="155" gradientUnits="userSpaceOnUse">
<stop stop-color="#D9C990"/>
<stop offset="1" stop-color="#C28E57"/>
</linearGradient>
<linearGradient id="paint1_linear_4_12882" x1="78" y1="55" x2="78" y2="155" gradientUnits="userSpaceOnUse">
<stop stop-color="#D9C990"/>
<stop offset="1" stop-color="#C28E57"/>
</linearGradient>
<linearGradient id="paint2_linear_4_12882" x1="78" y1="55" x2="78" y2="155" gradientUnits="userSpaceOnUse">
<stop stop-color="#D9C990"/>
<stop offset="1" stop-color="#C28E57"/>
</linearGradient>
<linearGradient id="paint3_linear_4_12882" x1="78" y1="55" x2="78" y2="155" gradientUnits="userSpaceOnUse">
<stop stop-color="#D9C990"/>
<stop offset="1" stop-color="#C28E57"/>
</linearGradient>
<linearGradient id="paint4_linear_4_12882" x1="84" y1="49" x2="84" y2="149" gradientUnits="userSpaceOnUse">
<stop stop-color="#D9C990"/>
<stop offset="1" stop-color="#C28E57"/>
</linearGradient>
<linearGradient id="paint5_linear_4_12882" x1="84" y1="49" x2="84" y2="149" gradientUnits="userSpaceOnUse">
<stop stop-color="#D9C990"/>
<stop offset="1" stop-color="#C28E57"/>
</linearGradient>
<linearGradient id="paint6_linear_4_12882" x1="84" y1="49" x2="84" y2="149" gradientUnits="userSpaceOnUse">
<stop stop-color="#D9C990"/>
<stop offset="1" stop-color="#C28E57"/>
</linearGradient>
<linearGradient id="paint7_linear_4_12882" x1="84" y1="49" x2="84" y2="149" gradientUnits="userSpaceOnUse">
<stop stop-color="#D9C990"/>
<stop offset="1" stop-color="#C28E57"/>
</linearGradient>
</defs>
</svg>
