<svg width="174" height="213" viewBox="0 0 174 213" fill="none" xmlns="http://www.w3.org/2000/svg">
<path d="M148.5 22.5H151.5V25.5H156V205.5H151.5V208.5H148.5V213H7.5V208.5H4.5V205.5H0V25.5H4.5V22.5H7.5V18H148.5V22.5Z" fill="#292D31"/>
<path d="M145.5 27H147V28.5H151.5V202.5H147V204H145.5V208.5H10.5V204H9V202.5H4.5V28.5H9V27H10.5V22.5H145.5V27ZM18.5 34.5H17V36H12V195H17V196.5H18.5V201H138V196.5H139.5V195H144V36H139.5V34.5H138V30H18.5V34.5Z" fill="#D4BB85"/>
<path d="M16.5 34.5H139.5V196.5H16.5V34.5Z" fill="#6C4638"/>
<g filter="url(#filter0_d_4_12698)">
<path fill-rule="evenodd" clip-rule="evenodd" d="M94.667 71.425H104.19V75.8492H108.953V80.2743H113.714V84.6993H118.476V92.6635H123.238V97.0886H128V101.514H123.238L118.476 101.513V97.0886H113.714V89.1235H108.953V84.6993H104.19V89.1235H99.4286V84.6993H104.19V80.2743H99.4286V84.6993H94.667V92.6635H104.191L104.19 89.1235H108.953V97.0886H85.1429V101.513L80.3812 101.514V71.425H75.6196V101.513L70.8571 101.514V97.0886H47.0473V89.1235H51.8089V92.6635H61.333V84.6993H56.5714V80.2743H66.0955L66.0947 92.6635H70.8571V71.425H66.0955V75.8492H56.5714V80.2743H51.8098V84.6993H47.0473V89.1235H42.2857V97.0886H37.5241V101.514H32.7616V132.486H37.5241V136.911H42.2857V144.876H47.0473V149.301H51.8098V153.726H56.5714V158.151H66.0955V162.575H70.8571V141.336H66.0947L66.0955 153.726H56.5714V149.301H61.333V141.336H51.8089V144.876H47.0473V136.911H70.8571V132.486L75.6196 132.487V162.575H80.3812V132.486L85.1429 132.487V136.911H108.953V144.876H104.191V141.336H94.667V149.301H99.4286V144.876H104.191L104.19 149.301H108.953V144.876H113.714V136.911H118.476V132.487L128 132.486V136.911H123.238V141.336H118.476V149.301H113.714V153.726H108.953V158.151H104.19V162.575H94.667L94.6661 167H61.333V162.575H51.8098V158.151H47.0473V153.726H42.2857V149.301H37.5241V141.336H32.7625V136.911H28V97.0886H32.7625V92.6635H37.5241V84.6993H42.2857V80.2743H47.0473V75.8492H51.8098V71.425H61.333V67H94.6661L94.667 71.425ZM85.1429 162.575H89.9045V158.151H99.4286V153.726H89.9045L89.9053 141.336H85.1429V162.575ZM99.4286 153.726H104.19V149.301H99.4286V153.726ZM85.1429 92.6635H89.9053L89.9045 80.2743H99.4286V75.8492H89.9045V71.425H85.1429V92.6635Z" fill="url(#paint0_linear_4_12698)"/>
<path d="M56.5714 149.301H51.8098L51.8089 144.876H56.5714V149.301Z" fill="url(#paint1_linear_4_12698)"/>
<path d="M56.5714 89.1235H51.8089L51.8098 84.6993H56.5714V89.1235Z" fill="url(#paint2_linear_4_12698)"/>
<path fill-rule="evenodd" clip-rule="evenodd" d="M128 132.486H123.238V123.637H89.9045V128.062H118.476V132.487L37.5241 132.486V128.062H66.0955V123.637H32.7625V119.212H61.333V114.788H32.7625V110.363H66.0955V105.938H37.5241V101.514L118.476 101.513V105.938H89.9045V110.363H123.238V101.514H128V132.486ZM94.667 114.788V119.212H123.238V114.788H94.667ZM85.1429 119.212H80.3812V123.637H75.6188V119.212H70.8571V128.062H85.1429V119.212H89.9045V114.788H85.1429V119.212ZM70.8571 114.788H66.0947V119.212H70.8571V114.788H75.6188V110.363H80.3812V114.788H85.1429V105.938H70.8571V114.788Z" fill="url(#paint3_linear_4_12698)"/>
</g>
<rect x="16" y="34" width="5" height="5" fill="#292D31"/>
<rect x="16" y="192" width="5" height="5" fill="#292D31"/>
<rect x="135" y="34" width="5" height="5" fill="#292D31"/>
<rect x="135" y="192" width="5" height="5" fill="#292D31"/>
<path d="M154.5 16.5H157.5V19.5H162V199.5H157.5V202.5H154.5V207H13.5V202.5H10.5V199.5H6V19.5H10.5V16.5H13.5V12H154.5V16.5Z" fill="#292D31"/>
<path d="M151.5 21H153V22.5H157.5V196.5H153V198H151.5V202.5H16.5V198H15V196.5H10.5V22.5H15V21H16.5V16.5H151.5V21ZM24.5 28.5H23V30H18V189H23V190.5H24.5V195H144V190.5H145.5V189H150V30H145.5V28.5H144V24H24.5V28.5Z" fill="#D4BB85"/>
<path d="M22.5 28.5H145.5V190.5H22.5V28.5Z" fill="#6C4638"/>
<g filter="url(#filter1_d_4_12698)">
<path fill-rule="evenodd" clip-rule="evenodd" d="M100.667 65.425H110.19V69.8492H114.953V74.2743H119.714V78.6993H124.476V86.6635H129.238V91.0886H134V95.5136H129.238L124.476 95.5128V91.0886H119.714V83.1235H114.953V78.6993H110.19V83.1235H105.429V78.6993H110.19V74.2743H105.429V78.6993H100.667V86.6635H110.191L110.19 83.1235H114.953V91.0886H91.1429V95.5128L86.3812 95.5136V65.425H81.6196V95.5128L76.8571 95.5136V91.0886H53.0473V83.1235H57.8089V86.6635H67.333V78.6993H62.5714V74.2743H72.0955L72.0947 86.6635H76.8571V65.425H72.0955V69.8492H62.5714V74.2743H57.8098V78.6993H53.0473V83.1235H48.2857V91.0886H43.5241V95.5136H38.7616V126.486H43.5241V130.911H48.2857V138.876H53.0473V143.301H57.8098V147.726H62.5714V152.151H72.0955V156.575H76.8571V135.336H72.0947L72.0955 147.726H62.5714V143.301H67.333V135.336H57.8089V138.876H53.0473V130.911H76.8571V126.486L81.6196 126.487V156.575H86.3812V126.486L91.1429 126.487V130.911H114.953V138.876H110.191V135.336H100.667V143.301H105.429V138.876H110.191L110.19 143.301H114.953V138.876H119.714V130.911H124.476V126.487L134 126.486V130.911H129.238V135.336H124.476V143.301H119.714V147.726H114.953V152.151H110.19V156.575H100.667L100.666 161H67.333V156.575H57.8098V152.151H53.0473V147.726H48.2857V143.301H43.5241V135.336H38.7625V130.911H34V91.0886H38.7625V86.6635H43.5241V78.6993H48.2857V74.2743H53.0473V69.8492H57.8098V65.425H67.333V61H100.666L100.667 65.425ZM91.1429 156.575H95.9045V152.151H105.429V147.726H95.9045L95.9053 135.336H91.1429V156.575ZM105.429 147.726H110.19V143.301H105.429V147.726ZM91.1429 86.6635H95.9053L95.9045 74.2743H105.429V69.8492H95.9045V65.425H91.1429V86.6635Z" fill="url(#paint4_linear_4_12698)"/>
<path d="M62.5714 143.301H57.8098L57.8089 138.876H62.5714V143.301Z" fill="url(#paint5_linear_4_12698)"/>
<path d="M62.5714 83.1235H57.8089L57.8098 78.6993H62.5714V83.1235Z" fill="url(#paint6_linear_4_12698)"/>
<path fill-rule="evenodd" clip-rule="evenodd" d="M134 126.486H129.238V117.637H95.9045V122.062H124.476V126.487L43.5241 126.486V122.062H72.0955V117.637H38.7625V113.212H67.333V108.788H38.7625V104.363H72.0955V99.9378H43.5241V95.5136L124.476 95.5128V99.9378H95.9045V104.363H129.238V95.5136H134V126.486ZM100.667 108.788V113.212H129.238V108.788H100.667ZM91.1429 113.212H86.3812V117.637H81.6188V113.212H76.8571V122.062H91.1429V113.212H95.9045V108.788H91.1429V113.212ZM76.8571 108.788H72.0947V113.212H76.8571V108.788H81.6188V104.363H86.3812V108.788H91.1429V99.9378H76.8571V108.788Z" fill="url(#paint7_linear_4_12698)"/>
</g>
<rect x="22" y="28" width="5" height="5" fill="#292D31"/>
<rect x="22" y="186" width="5" height="5" fill="#292D31"/>
<rect x="141" y="28" width="5" height="5" fill="#292D31"/>
<rect x="141" y="186" width="5" height="5" fill="#292D31"/>
<path d="M160.5 10.5H163.5V13.5H168V193.5H163.5V196.5H160.5V201H19.5V196.5H16.5V193.5H12V13.5H16.5V10.5H19.5V6H160.5V10.5Z" fill="#292D31"/>
<path d="M157.5 15H159V16.5H163.5V190.5H159V192H157.5V196.5H22.5V192H21V190.5H16.5V16.5H21V15H22.5V10.5H157.5V15ZM30.5 22.5H29V24H24V183H29V184.5H30.5V189H150V184.5H151.5V183H156V24H151.5V22.5H150V18H30.5V22.5Z" fill="#D4BB85"/>
<path d="M28.5 22.5H151.5V184.5H28.5V22.5Z" fill="#6C4638"/>
<g filter="url(#filter2_d_4_12698)">
<path fill-rule="evenodd" clip-rule="evenodd" d="M106.667 59.425H116.19V63.8492H120.953V68.2743H125.714V72.6993H130.476V80.6635H135.238V85.0886H140V89.5136H135.238L130.476 89.5128V85.0886H125.714V77.1235H120.953V72.6993H116.19V77.1235H111.429V72.6993H116.19V68.2743H111.429V72.6993H106.667V80.6635H116.191L116.19 77.1235H120.953V85.0886H97.1429V89.5128L92.3812 89.5136V59.425H87.6196V89.5128L82.8571 89.5136V85.0886H59.0473V77.1235H63.8089V80.6635H73.333V72.6993H68.5714V68.2743H78.0955L78.0947 80.6635H82.8571V59.425H78.0955V63.8492H68.5714V68.2743H63.8098V72.6993H59.0473V77.1235H54.2857V85.0886H49.5241V89.5136H44.7616V120.486H49.5241V124.911H54.2857V132.876H59.0473V137.301H63.8098V141.726H68.5714V146.151H78.0955V150.575H82.8571V129.336H78.0947L78.0955 141.726H68.5714V137.301H73.333V129.336H63.8089V132.876H59.0473V124.911H82.8571V120.486L87.6196 120.487V150.575H92.3812V120.486L97.1429 120.487V124.911H120.953V132.876H116.191V129.336H106.667V137.301H111.429V132.876H116.191L116.19 137.301H120.953V132.876H125.714V124.911H130.476V120.487L140 120.486V124.911H135.238V129.336H130.476V137.301H125.714V141.726H120.953V146.151H116.19V150.575H106.667L106.666 155H73.333V150.575H63.8098V146.151H59.0473V141.726H54.2857V137.301H49.5241V129.336H44.7625V124.911H40V85.0886H44.7625V80.6635H49.5241V72.6993H54.2857V68.2743H59.0473V63.8492H63.8098V59.425H73.333V55H106.666L106.667 59.425ZM97.1429 150.575H101.904V146.151H111.429V141.726H101.904L101.905 129.336H97.1429V150.575ZM111.429 141.726H116.19V137.301H111.429V141.726ZM97.1429 80.6635H101.905L101.904 68.2743H111.429V63.8492H101.904V59.425H97.1429V80.6635Z" fill="url(#paint8_linear_4_12698)"/>
<path d="M68.5714 137.301H63.8098L63.8089 132.876H68.5714V137.301Z" fill="url(#paint9_linear_4_12698)"/>
<path d="M68.5714 77.1235H63.8089L63.8098 72.6993H68.5714V77.1235Z" fill="url(#paint10_linear_4_12698)"/>
<path fill-rule="evenodd" clip-rule="evenodd" d="M140 120.486H135.238V111.637H101.904V116.062H130.476V120.487L49.5241 120.486V116.062H78.0955V111.637H44.7625V107.212H73.333V102.788H44.7625V98.3629H78.0955V93.9378H49.5241V89.5136L130.476 89.5128V93.9378H101.904V98.3629H135.238V89.5136H140V120.486ZM106.667 102.788V107.212H135.238V102.788H106.667ZM97.1429 107.212H92.3812V111.637H87.6188V107.212H82.8571V116.062H97.1429V107.212H101.904V102.788H97.1429V107.212ZM82.8571 102.788H78.0947V107.212H82.8571V102.788H87.6188V98.3629H92.3812V102.788H97.1429V93.9378H82.8571V102.788Z" fill="url(#paint11_linear_4_12698)"/>
</g>
<rect x="28" y="22" width="5" height="5" fill="#292D31"/>
<rect x="28" y="180" width="5" height="5" fill="#292D31"/>
<rect x="147" y="22" width="5" height="5" fill="#292D31"/>
<rect x="147" y="180" width="5" height="5" fill="#292D31"/>
<path d="M166.5 4.5H169.5V7.5H174V187.5H169.5V190.5H166.5V195H25.5V190.5H22.5V187.5H18V7.5H22.5V4.5H25.5V0H166.5V4.5Z" fill="#292D31"/>
<path d="M163.5 9H165V10.5H169.5V184.5H165V186H163.5V190.5H28.5V186H27V184.5H22.5V10.5H27V9H28.5V4.5H163.5V9ZM36.5 16.5H35V18H30V177H35V178.5H36.5V183H156V178.5H157.5V177H162V18H157.5V16.5H156V12H36.5V16.5Z" fill="#D4BB85"/>
<path d="M34.5 16.5H157.5V178.5H34.5V16.5Z" fill="#6C4638"/>
<g filter="url(#filter3_d_4_12698)">
<path fill-rule="evenodd" clip-rule="evenodd" d="M112.667 53.425H122.19V57.8492H126.953V62.2743H131.714V66.6993H136.476V74.6635H141.238V79.0886H146V83.5136H141.238L136.476 83.5128V79.0886H131.714V71.1235H126.953V66.6993H122.19V71.1235H117.429V66.6993H122.19V62.2743H117.429V66.6993H112.667V74.6635H122.191L122.19 71.1235H126.953V79.0886H103.143V83.5128L98.3812 83.5136V53.425H93.6196V83.5128L88.8571 83.5136V79.0886H65.0473V71.1235H69.8089V74.6635H79.333V66.6993H74.5714V62.2743H84.0955L84.0947 74.6635H88.8571V53.425H84.0955V57.8492H74.5714V62.2743H69.8098V66.6993H65.0473V71.1235H60.2857V79.0886H55.5241V83.5136H50.7616V114.486H55.5241V118.911H60.2857V126.876H65.0473V131.301H69.8098V135.726H74.5714V140.151H84.0955V144.575H88.8571V123.336H84.0947L84.0955 135.726H74.5714V131.301H79.333V123.336H69.8089V126.876H65.0473V118.911H88.8571V114.486L93.6196 114.487V144.575H98.3812V114.486L103.143 114.487V118.911H126.953V126.876H122.191V123.336H112.667V131.301H117.429V126.876H122.191L122.19 131.301H126.953V126.876H131.714V118.911H136.476V114.487L146 114.486V118.911H141.238V123.336H136.476V131.301H131.714V135.726H126.953V140.151H122.19V144.575H112.667L112.666 149H79.333V144.575H69.8098V140.151H65.0473V135.726H60.2857V131.301H55.5241V123.336H50.7625V118.911H46V79.0886H50.7625V74.6635H55.5241V66.6993H60.2857V62.2743H65.0473V57.8492H69.8098V53.425H79.333V49H112.666L112.667 53.425ZM103.143 144.575H107.904V140.151H117.429V135.726H107.904L107.905 123.336H103.143V144.575ZM117.429 135.726H122.19V131.301H117.429V135.726ZM103.143 74.6635H107.905L107.904 62.2743H117.429V57.8492H107.904V53.425H103.143V74.6635Z" fill="url(#paint12_linear_4_12698)"/>
<path d="M74.5714 131.301H69.8098L69.8089 126.876H74.5714V131.301Z" fill="url(#paint13_linear_4_12698)"/>
<path d="M74.5714 71.1235H69.8089L69.8098 66.6993H74.5714V71.1235Z" fill="url(#paint14_linear_4_12698)"/>
<path fill-rule="evenodd" clip-rule="evenodd" d="M146 114.486H141.238V105.637H107.904V110.062H136.476V114.487L55.5241 114.486V110.062H84.0955V105.637H50.7625V101.212H79.333V96.7879H50.7625V92.3629H84.0955V87.9378H55.5241V83.5136L136.476 83.5128V87.9378H107.904V92.3629H141.238V83.5136H146V114.486ZM112.667 96.7879V101.212H141.238V96.7879H112.667ZM103.143 101.212H98.3812V105.637H93.6188V101.212H88.8571V110.062H103.143V101.212H107.904V96.7879H103.143V101.212ZM88.8571 96.7879H84.0947V101.212H88.8571V96.7879H93.6188V92.3629H98.3812V96.7879H103.143V87.9378H88.8571V96.7879Z" fill="url(#paint15_linear_4_12698)"/>
</g>
<rect x="34" y="16" width="5" height="5" fill="#292D31"/>
<rect x="34" y="174" width="5" height="5" fill="#292D31"/>
<rect x="153" y="16" width="5" height="5" fill="#292D31"/>
<rect x="153" y="174" width="5" height="5" fill="#292D31"/>
<defs>
<filter id="filter0_d_4_12698" x="28" y="67" width="100" height="104" filterUnits="userSpaceOnUse" color-interpolation-filters="sRGB">
<feFlood flood-opacity="0" result="BackgroundImageFix"/>
<feColorMatrix in="SourceAlpha" type="matrix" values="0 0 0 0 0 0 0 0 0 0 0 0 0 0 0 0 0 0 127 0" result="hardAlpha"/>
<feOffset dy="4"/>
<feComposite in2="hardAlpha" operator="out"/>
<feColorMatrix type="matrix" values="0 0 0 0 0 0 0 0 0 0 0 0 0 0 0 0 0 0 0.4 0"/>
<feBlend mode="normal" in2="BackgroundImageFix" result="effect1_dropShadow_4_12698"/>
<feBlend mode="normal" in="SourceGraphic" in2="effect1_dropShadow_4_12698" result="shape"/>
</filter>
<filter id="filter1_d_4_12698" x="34" y="61" width="100" height="104" filterUnits="userSpaceOnUse" color-interpolation-filters="sRGB">
<feFlood flood-opacity="0" result="BackgroundImageFix"/>
<feColorMatrix in="SourceAlpha" type="matrix" values="0 0 0 0 0 0 0 0 0 0 0 0 0 0 0 0 0 0 127 0" result="hardAlpha"/>
<feOffset dy="4"/>
<feComposite in2="hardAlpha" operator="out"/>
<feColorMatrix type="matrix" values="0 0 0 0 0 0 0 0 0 0 0 0 0 0 0 0 0 0 0.4 0"/>
<feBlend mode="normal" in2="BackgroundImageFix" result="effect1_dropShadow_4_12698"/>
<feBlend mode="normal" in="SourceGraphic" in2="effect1_dropShadow_4_12698" result="shape"/>
</filter>
<filter id="filter2_d_4_12698" x="40" y="55" width="100" height="104" filterUnits="userSpaceOnUse" color-interpolation-filters="sRGB">
<feFlood flood-opacity="0" result="BackgroundImageFix"/>
<feColorMatrix in="SourceAlpha" type="matrix" values="0 0 0 0 0 0 0 0 0 0 0 0 0 0 0 0 0 0 127 0" result="hardAlpha"/>
<feOffset dy="4"/>
<feComposite in2="hardAlpha" operator="out"/>
<feColorMatrix type="matrix" values="0 0 0 0 0 0 0 0 0 0 0 0 0 0 0 0 0 0 0.4 0"/>
<feBlend mode="normal" in2="BackgroundImageFix" result="effect1_dropShadow_4_12698"/>
<feBlend mode="normal" in="SourceGraphic" in2="effect1_dropShadow_4_12698" result="shape"/>
</filter>
<filter id="filter3_d_4_12698" x="46" y="49" width="100" height="104" filterUnits="userSpaceOnUse" color-interpolation-filters="sRGB">
<feFlood flood-opacity="0" result="BackgroundImageFix"/>
<feColorMatrix in="SourceAlpha" type="matrix" values="0 0 0 0 0 0 0 0 0 0 0 0 0 0 0 0 0 0 127 0" result="hardAlpha"/>
<feOffset dy="4"/>
<feComposite in2="hardAlpha" operator="out"/>
<feColorMatrix type="matrix" values="0 0 0 0 0 0 0 0 0 0 0 0 0 0 0 0 0 0 0.4 0"/>
<feBlend mode="normal" in2="BackgroundImageFix" result="effect1_dropShadow_4_12698"/>
<feBlend mode="normal" in="SourceGraphic" in2="effect1_dropShadow_4_12698" result="shape"/>
</filter>
<linearGradient id="paint0_linear_4_12698" x1="78" y1="67" x2="78" y2="167" gradientUnits="userSpaceOnUse">
<stop stop-color="#D9C990"/>
<stop offset="1" stop-color="#C28E57"/>
</linearGradient>
<linearGradient id="paint1_linear_4_12698" x1="78" y1="67" x2="78" y2="167" gradientUnits="userSpaceOnUse">
<stop stop-color="#D9C990"/>
<stop offset="1" stop-color="#C28E57"/>
</linearGradient>
<linearGradient id="paint2_linear_4_12698" x1="78" y1="67" x2="78" y2="167" gradientUnits="userSpaceOnUse">
<stop stop-color="#D9C990"/>
<stop offset="1" stop-color="#C28E57"/>
</linearGradient>
<linearGradient id="paint3_linear_4_12698" x1="78" y1="67" x2="78" y2="167" gradientUnits="userSpaceOnUse">
<stop stop-color="#D9C990"/>
<stop offset="1" stop-color="#C28E57"/>
</linearGradient>
<linearGradient id="paint4_linear_4_12698" x1="84" y1="61" x2="84" y2="161" gradientUnits="userSpaceOnUse">
<stop stop-color="#D9C990"/>
<stop offset="1" stop-color="#C28E57"/>
</linearGradient>
<linearGradient id="paint5_linear_4_12698" x1="84" y1="61" x2="84" y2="161" gradientUnits="userSpaceOnUse">
<stop stop-color="#D9C990"/>
<stop offset="1" stop-color="#C28E57"/>
</linearGradient>
<linearGradient id="paint6_linear_4_12698" x1="84" y1="61" x2="84" y2="161" gradientUnits="userSpaceOnUse">
<stop stop-color="#D9C990"/>
<stop offset="1" stop-color="#C28E57"/>
</linearGradient>
<linearGradient id="paint7_linear_4_12698" x1="84" y1="61" x2="84" y2="161" gradientUnits="userSpaceOnUse">
<stop stop-color="#D9C990"/>
<stop offset="1" stop-color="#C28E57"/>
</linearGradient>
<linearGradient id="paint8_linear_4_12698" x1="90" y1="55" x2="90" y2="155" gradientUnits="userSpaceOnUse">
<stop stop-color="#D9C990"/>
<stop offset="1" stop-color="#C28E57"/>
</linearGradient>
<linearGradient id="paint9_linear_4_12698" x1="90" y1="55" x2="90" y2="155" gradientUnits="userSpaceOnUse">
<stop stop-color="#D9C990"/>
<stop offset="1" stop-color="#C28E57"/>
</linearGradient>
<linearGradient id="paint10_linear_4_12698" x1="90" y1="55" x2="90" y2="155" gradientUnits="userSpaceOnUse">
<stop stop-color="#D9C990"/>
<stop offset="1" stop-color="#C28E57"/>
</linearGradient>
<linearGradient id="paint11_linear_4_12698" x1="90" y1="55" x2="90" y2="155" gradientUnits="userSpaceOnUse">
<stop stop-color="#D9C990"/>
<stop offset="1" stop-color="#C28E57"/>
</linearGradient>
<linearGradient id="paint12_linear_4_12698" x1="96" y1="49" x2="96" y2="149" gradientUnits="userSpaceOnUse">
<stop stop-color="#D9C990"/>
<stop offset="1" stop-color="#C28E57"/>
</linearGradient>
<linearGradient id="paint13_linear_4_12698" x1="96" y1="49" x2="96" y2="149" gradientUnits="userSpaceOnUse">
<stop stop-color="#D9C990"/>
<stop offset="1" stop-color="#C28E57"/>
</linearGradient>
<linearGradient id="paint14_linear_4_12698" x1="96" y1="49" x2="96" y2="149" gradientUnits="userSpaceOnUse">
<stop stop-color="#D9C990"/>
<stop offset="1" stop-color="#C28E57"/>
</linearGradient>
<linearGradient id="paint15_linear_4_12698" x1="96" y1="49" x2="96" y2="149" gradientUnits="userSpaceOnUse">
<stop stop-color="#D9C990"/>
<stop offset="1" stop-color="#C28E57"/>
</linearGradient>
</defs>
</svg>
