<svg width="156" height="195" viewBox="0 0 156 195" fill="none" xmlns="http://www.w3.org/2000/svg">
<path d="M148.5 4.5H151.5V7.5H156V187.5H151.5V190.5H148.5V195H7.5V190.5H4.5V187.5H0V7.5H4.5V4.5H7.5V0H148.5V4.5Z" fill="#292D31"/>
<path d="M145.5 9H147V10.5H151.5V184.5H147V186H145.5V190.5H10.5V186H9V184.5H4.5V10.5H9V9H10.5V4.5H145.5V9ZM18.5 16.5H17V18H12V177H17V178.5H18.5V183H138V178.5H139.5V177H144V18H139.5V16.5H138V12H18.5V16.5Z" fill="#D4BB85"/>
<path d="M16.5 16.5H139.5V178.5H16.5V16.5Z" fill="#6C4638"/>
<g filter="url(#filter0_d_4_13064)">
<path fill-rule="evenodd" clip-rule="evenodd" d="M94.667 53.425H104.19V57.8492H108.953V62.2743H113.714V66.6993H118.476V74.6635H123.238V79.0886H128V83.5136H123.238L118.476 83.5128V79.0886H113.714V71.1235H108.953V66.6993H104.19V71.1235H99.4286V66.6993H104.19V62.2743H99.4286V66.6993H94.667V74.6635H104.191L104.19 71.1235H108.953V79.0886H85.1429V83.5128L80.3812 83.5136V53.425H75.6196V83.5128L70.8571 83.5136V79.0886H47.0473V71.1235H51.8089V74.6635H61.333V66.6993H56.5714V62.2743H66.0955L66.0947 74.6635H70.8571V53.425H66.0955V57.8492H56.5714V62.2743H51.8098V66.6993H47.0473V71.1235H42.2857V79.0886H37.5241V83.5136H32.7616V114.486H37.5241V118.911H42.2857V126.876H47.0473V131.301H51.8098V135.726H56.5714V140.151H66.0955V144.575H70.8571V123.336H66.0947L66.0955 135.726H56.5714V131.301H61.333V123.336H51.8089V126.876H47.0473V118.911H70.8571V114.486L75.6196 114.487V144.575H80.3812V114.486L85.1429 114.487V118.911H108.953V126.876H104.191V123.336H94.667V131.301H99.4286V126.876H104.191L104.19 131.301H108.953V126.876H113.714V118.911H118.476V114.487L128 114.486V118.911H123.238V123.336H118.476V131.301H113.714V135.726H108.953V140.151H104.19V144.575H94.667L94.6661 149H61.333V144.575H51.8098V140.151H47.0473V135.726H42.2857V131.301H37.5241V123.336H32.7625V118.911H28V79.0886H32.7625V74.6635H37.5241V66.6993H42.2857V62.2743H47.0473V57.8492H51.8098V53.425H61.333V49H94.6661L94.667 53.425ZM85.1429 144.575H89.9045V140.151H99.4286V135.726H89.9045L89.9053 123.336H85.1429V144.575ZM99.4286 135.726H104.19V131.301H99.4286V135.726ZM85.1429 74.6635H89.9053L89.9045 62.2743H99.4286V57.8492H89.9045V53.425H85.1429V74.6635Z" fill="url(#paint0_linear_4_13064)"/>
<path d="M56.5714 131.301H51.8098L51.8089 126.876H56.5714V131.301Z" fill="url(#paint1_linear_4_13064)"/>
<path d="M56.5714 71.1235H51.8089L51.8098 66.6993H56.5714V71.1235Z" fill="url(#paint2_linear_4_13064)"/>
<path fill-rule="evenodd" clip-rule="evenodd" d="M128 114.486H123.238V105.637H89.9045V110.062H118.476V114.487L37.5241 114.486V110.062H66.0955V105.637H32.7625V101.212H61.333V96.7879H32.7625V92.3629H66.0955V87.9378H37.5241V83.5136L118.476 83.5128V87.9378H89.9045V92.3629H123.238V83.5136H128V114.486ZM94.667 96.7879V101.212H123.238V96.7879H94.667ZM85.1429 101.212H80.3812V105.637H75.6188V101.212H70.8571V110.062H85.1429V101.212H89.9045V96.7879H85.1429V101.212ZM70.8571 96.7879H66.0947V101.212H70.8571V96.7879H75.6188V92.3629H80.3812V96.7879H85.1429V87.9378H70.8571V96.7879Z" fill="url(#paint3_linear_4_13064)"/>
</g>
<rect x="16" y="16" width="5" height="5" fill="#292D31"/>
<rect x="16" y="174" width="5" height="5" fill="#292D31"/>
<rect x="135" y="16" width="5" height="5" fill="#292D31"/>
<rect x="135" y="174" width="5" height="5" fill="#292D31"/>
<defs>
<filter id="filter0_d_4_13064" x="28" y="49" width="100" height="104" filterUnits="userSpaceOnUse" color-interpolation-filters="sRGB">
<feFlood flood-opacity="0" result="BackgroundImageFix"/>
<feColorMatrix in="SourceAlpha" type="matrix" values="0 0 0 0 0 0 0 0 0 0 0 0 0 0 0 0 0 0 127 0" result="hardAlpha"/>
<feOffset dy="4"/>
<feComposite in2="hardAlpha" operator="out"/>
<feColorMatrix type="matrix" values="0 0 0 0 0 0 0 0 0 0 0 0 0 0 0 0 0 0 0.4 0"/>
<feBlend mode="normal" in2="BackgroundImageFix" result="effect1_dropShadow_4_13064"/>
<feBlend mode="normal" in="SourceGraphic" in2="effect1_dropShadow_4_13064" result="shape"/>
</filter>
<linearGradient id="paint0_linear_4_13064" x1="78" y1="49" x2="78" y2="149" gradientUnits="userSpaceOnUse">
<stop stop-color="#D9C990"/>
<stop offset="1" stop-color="#C28E57"/>
</linearGradient>
<linearGradient id="paint1_linear_4_13064" x1="78" y1="49" x2="78" y2="149" gradientUnits="userSpaceOnUse">
<stop stop-color="#D9C990"/>
<stop offset="1" stop-color="#C28E57"/>
</linearGradient>
<linearGradient id="paint2_linear_4_13064" x1="78" y1="49" x2="78" y2="149" gradientUnits="userSpaceOnUse">
<stop stop-color="#D9C990"/>
<stop offset="1" stop-color="#C28E57"/>
</linearGradient>
<linearGradient id="paint3_linear_4_13064" x1="78" y1="49" x2="78" y2="149" gradientUnits="userSpaceOnUse">
<stop stop-color="#D9C990"/>
<stop offset="1" stop-color="#C28E57"/>
</linearGradient>
</defs>
</svg>
